<?xml version="1.0" standalone="no"?>
<!DOCTYPE svg PUBLIC "-//W3C//DTD SVG 20010904//EN"
 "http://www.w3.org/TR/2001/REC-SVG-20010904/DTD/svg10.dtd">
<svg version="1.0" xmlns="http://www.w3.org/2000/svg"
 width="700.000000pt" height="700.000000pt" viewBox="0 0 700.000000 700.000000"
 preserveAspectRatio="xMidYMid meet">
<metadata>
Created by potrace 1.14, written by Peter Selinger 2001-2017
</metadata>
<g transform="translate(0.000000,700.000000) scale(0.100000,-0.100000)"
fill="#000000" stroke="none">
<path d="M3248 6775 c-2 -2 -30 -6 -63 -9 -675 -64 -1340 -351 -1846 -798
-131 -115 -269 -257 -359 -368 -25 -30 -47 -57 -50 -60 -3 -3 -31 -39 -61 -80
-325 -439 -537 -947 -614 -1475 -4 -22 -8 -50 -10 -61 -27 -165 -27 -665 -1
-834 2 -14 7 -47 11 -75 29 -218 131 -590 204 -750 5 -11 28 -63 51 -115 46
-105 109 -226 178 -340 46 -77 181 -276 212 -314 10 -11 52 -61 93 -111 384
-460 925 -823 1502 -1008 105 -34 277 -80 340 -91 17 -3 39 -8 50 -10 26 -5
105 -19 125 -22 16 -2 92 -11 205 -24 74 -8 562 -6 605 3 14 3 54 8 89 12 35
3 67 7 70 9 3 2 29 6 58 10 28 3 84 13 125 22 40 8 83 17 95 20 12 2 78 20
145 39 382 110 733 283 1058 524 41 30 77 58 80 61 3 3 19 16 35 29 98 75 271
242 386 372 285 323 498 689 645 1109 28 81 88 291 99 348 30 160 42 231 51
307 3 33 9 69 11 80 3 11 6 137 8 280 3 308 -5 410 -61 710 -15 81 -93 364
-113 410 -5 11 -25 65 -46 120 -89 235 -277 579 -409 747 -12 14 -32 41 -46
59 -195 259 -490 535 -775 726 -423 283 -931 473 -1410 528 -27 3 -70 8 -95
12 -47 6 -566 13 -572 8z m787 -1699 c94 -13 124 -18 194 -37 233 -62 410
-213 527 -449 67 -133 85 -212 89 -375 3 -112 0 -156 -15 -220 -55 -231 -152
-384 -309 -487 -40 -26 -91 -53 -112 -60 -22 -6 -39 -14 -39 -17 0 -4 23 -17
52 -31 128 -61 234 -171 278 -287 49 -131 60 -235 65 -608 2 -158 8 -293 15
-325 14 -66 50 -130 87 -160 30 -23 48 -84 29 -99 -6 -4 -171 -8 -368 -8
l-356 0 -16 56 c-17 63 -43 188 -44 211 0 8 -3 42 -6 75 -3 33 -8 166 -11 297
-9 429 -54 527 -265 584 -56 15 -120 18 -450 20 -212 1 -392 1 -400 -2 -13 -3
-15 -80 -15 -621 l0 -618 -322 -1 c-227 -1 -323 2 -324 10 -5 58 -3 3135 3
3147 6 14 90 15 840 13 458 -1 851 -5 873 -8z"/>
<path d="M2969 4520 c-4 -39 -5 -816 -1 -826 4 -13 827 -12 897 1 215 39 315
162 317 390 1 55 -1 111 -4 125 -38 175 -112 259 -263 301 -77 21 -99 22 -512
23 -383 2 -433 0 -434 -14z"/>
</g>
</svg>
